<svg id="svg" version="1.1" xmlns="http://www.w3.org/2000/svg" xmlns:xlink="http://www.w3.org/1999/xlink" width="400" height="225" viewBox="0, 0, 400,225"><g id="svgg"><path id="path0" d="M0.006 64.115 L 0.013 128.229 0.683 127.069 C 1.052 126.430,3.740 121.772,6.656 116.718 C 9.572 111.663,12.019 107.564,12.093 107.610 C 12.167 107.656,17.559 116.931,24.076 128.222 C 30.592 139.512,35.974 148.748,36.035 148.747 C 36.096 148.745,37.372 146.612,38.870 144.007 C 53.635 118.336,80.936 71.092,81.120 70.893 C 81.298 70.701,81.941 71.657,83.783 74.851 C 97.198 98.105,139.844 171.988,139.869 172.017 C 139.887 172.038,148.743 156.741,159.550 138.025 C 170.356 119.309,179.308 103.849,179.443 103.669 C 179.646 103.398,181.967 107.294,193.021 126.460 C 200.354 139.175,206.411 149.579,206.481 149.580 C 206.550 149.582,207.216 148.529,207.960 147.240 C 255.506 64.877,268.245 42.807,271.042 37.957 L 274.443 32.060 274.808 32.644 C 275.009 32.966,278.983 39.839,283.641 47.917 C 288.298 55.995,292.173 62.666,292.252 62.742 C 292.331 62.817,294.781 58.739,297.696 53.679 C 300.612 48.619,308.709 34.589,315.690 22.500 C 322.671 10.411,328.429 0.404,328.485 0.260 C 328.566 0.052,295.643 0.000,164.293 0.000 L 0.000 0.000 0.006 64.115 M386.250 0.120 C 386.250 0.187,389.235 5.413,392.883 11.735 C 396.531 18.057,399.622 23.417,399.751 23.646 C 399.929 23.960,399.989 21.098,399.994 12.031 L 400.000 0.000 393.125 0.000 C 389.344 0.000,386.250 0.054,386.250 0.120 M132.568 19.260 C 158.502 25.159,162.627 61.076,138.681 72.481 C 116.676 82.963,92.945 61.259,100.751 37.791 C 105.143 24.588,119.424 16.270,132.568 19.260 " stroke="none" fill="#e3e3e3" fill-rule="evenodd"></path><path id="path1" d="M122.083 19.147 C 100.250 23.400,91.718 50.199,107.021 66.455 C 121.429 81.761,146.534 75.949,153.227 55.758 C 159.846 35.792,142.331 15.203,122.083 19.147 " stroke="none" fill="#dc7c94" fill-rule="evenodd"></path><path id="path2" d="M280.441 117.044 C 242.402 182.980,224.078 214.714,223.970 214.841 C 223.899 214.925,218.508 205.758,211.991 194.470 C 205.474 183.181,200.063 173.972,199.966 174.004 C 199.869 174.037,193.185 185.500,185.113 199.479 L 170.436 224.896 284.628 224.948 C 347.433 224.977,398.855 224.964,398.899 224.920 C 399.007 224.812,359.308 156.047,359.136 156.044 C 359.061 156.043,353.952 164.798,347.781 175.500 C 341.611 186.202,336.497 194.897,336.417 194.823 C 336.290 194.704,327.371 179.317,319.010 164.792 C 311.908 152.455,286.586 108.586,286.277 108.085 L 285.932 107.525 280.441 117.044 M9.219 166.870 L 0.000 182.861 0.000 203.930 L 0.000 225.000 53.542 225.000 C 82.990 225.000,107.083 224.963,107.083 224.917 C 107.083 224.871,102.461 216.832,96.812 207.052 C 91.162 197.272,83.171 183.435,79.054 176.302 C 74.937 169.169,71.514 163.333,71.447 163.333 C 71.381 163.333,66.224 172.188,59.986 183.011 C 53.749 193.834,48.599 202.689,48.542 202.690 C 48.484 202.691,41.734 191.062,33.542 176.849 C 25.349 162.636,18.599 150.978,18.542 150.943 C 18.484 150.909,14.289 158.076,9.219 166.870 " stroke="none" fill="#747474" fill-rule="evenodd"></path><path id="path3" d="M316.839 20.781 C 310.239 32.211,302.041 46.412,298.620 52.339 C 293.856 60.596,292.346 63.056,292.163 62.860 C 292.032 62.719,288.012 55.807,283.229 47.500 C 278.446 39.193,274.516 32.376,274.497 32.352 C 274.477 32.328,273.017 34.813,271.252 37.873 C 269.487 40.934,255.161 65.750,239.416 93.021 C 223.671 120.292,209.838 144.264,208.676 146.293 C 206.874 149.437,206.525 149.932,206.307 149.645 C 206.167 149.460,200.134 139.058,192.901 126.529 C 185.669 114.001,179.690 103.752,179.615 103.754 C 179.540 103.756,170.579 119.178,159.700 138.027 C 148.822 156.875,139.860 172.225,139.786 172.138 C 139.712 172.050,127.808 151.448,113.333 126.354 C 98.858 101.260,85.727 78.497,84.152 75.768 L 81.290 70.807 80.153 72.747 C 79.528 73.814,70.362 89.688,59.784 108.021 C 49.206 126.354,39.564 143.065,38.357 145.156 C 37.150 147.247,36.099 148.958,36.022 148.958 C 35.944 148.958,30.605 139.814,24.156 128.638 C 17.706 117.461,12.328 108.186,12.205 108.025 C 12.029 107.797,10.660 110.024,5.989 118.137 L -0.002 128.541 0.051 155.611 L 0.104 182.682 9.271 166.781 C 14.313 158.035,18.484 150.909,18.542 150.943 C 18.599 150.978,25.349 162.636,33.542 176.849 C 41.734 191.062,48.484 202.691,48.542 202.690 C 48.599 202.689,53.749 193.834,59.986 183.011 C 66.224 172.188,71.381 163.333,71.447 163.333 C 71.513 163.333,78.943 176.107,87.958 191.719 C 96.973 207.331,104.986 221.206,105.764 222.553 L 107.181 225.001 138.808 224.949 L 170.436 224.896 185.113 199.479 C 193.185 185.500,199.869 174.037,199.966 174.004 C 200.063 173.972,205.376 183.019,211.773 194.108 C 218.170 205.198,223.514 214.435,223.649 214.635 C 223.909 215.023,222.550 217.353,269.230 136.458 C 278.388 120.589,285.897 107.585,285.917 107.561 C 285.953 107.519,287.899 110.880,307.710 145.208 C 332.837 188.748,336.061 194.321,336.304 194.635 C 336.524 194.919,338.251 192.041,347.781 175.506 C 353.952 164.800,359.061 156.043,359.136 156.044 C 359.210 156.045,368.224 171.560,379.167 190.522 C 396.300 220.210,399.128 224.997,399.531 224.999 L 400.000 225.000 400.000 124.663 L 400.000 24.327 392.976 12.163 L 385.952 0.000 357.395 -0.000 L 328.839 -0.000 316.839 20.781 " stroke="none" fill="#545454" fill-rule="evenodd"></path><path id="path4" d="" stroke="none" fill="#a6a6a6" fill-rule="evenodd"></path></g></svg>