<svg xmlns="http://www.w3.org/2000/svg" version="1.1" xmlns:xlink="http://www.w3.org/1999/xlink" xmlns:svgjs="http://svgjs.com/svgjs" width="1440" height="560" preserveAspectRatio="none" viewBox="0 0 1440 560"><g mask="url(&quot;#SvgjsMask1002&quot;)" fill="none"><rect width="1440" height="560" x="0" y="0" fill="#0e2a47"></rect><path d="M-83.36 127.24C33.09 128.51 111.17 241.52 364.3 256.04 617.44 270.56 671.63 584.07 811.97 603.67" stroke="rgba(223, 125, 149, 1)" stroke-width="2"></path><path d="M-18.89 270.31C127.92 269.79 323.43 151.17 557.56 158.31 791.69 165.45 723.67 565.93 845.78 631.18" stroke="rgba(223, 125, 149, 1)" stroke-width="2"></path><path d="M-184.48 182.05C-45.51 180.91 128.18 30.99 353.49 42.05 578.81 53.11 498.92 497.88 622.48 585.84" stroke="rgba(223, 125, 149, 1)" stroke-width="2"></path><path d="M-156.96 515.45C5.46 514.4 157.47 364.1 474.91 364.25 792.35 364.4 934.65 632.92 1106.78 638.76" stroke="rgba(223, 125, 149, 1)" stroke-width="2"></path><path d="M-178.32 257.99C-21.54 257.2 186.29 116.5 434.23 123.59 682.17 130.68 610.1 561.41 740.51 632.36" stroke="rgba(223, 125, 149, 1)" stroke-width="2"></path></g><defs><mask id="SvgjsMask1002"><rect width="1440" height="560" fill="#ffffff"></rect></mask></defs></svg>